<svg width="1584" height="396" viewBox="0 0 1584 396" fill="none" xmlns="http://www.w3.org/2000/svg">
<rect width="1584" height="396" fill="#F5F5F5"/>
<g id="Awesome banner" clip-path="url(#clip0_0_1)">
<rect width="1584" height="396" fill="url(#paint0_linear_0_1)"/>
<ellipse id="Ellipse 2" cx="323" cy="64" rx="285" ry="288" fill="url(#paint1_linear_0_1)" fill-opacity="0.1"/>
<g id="copyright">
<path d="M75.95 334.52L72.30 334.52L72.30 311.16L77.20 311.16L83.70 330.04Q83.60 329.02 83.50 327.62Q83.41 326.23 83.33 324.79Q83.25 323.35 83.25 322.23L83.25 311.16L86.90 311.16L86.90 334.52L82 334.52L75.57 315.64Q75.63 316.57 75.73 317.88Q75.82 319.19 75.89 320.57Q75.95 321.94 75.95 323.10L75.95 334.52M98.80 334.84Q96.46 334.84 94.67 333.96Q92.88 333.08 91.89 331.53Q90.90 329.98 90.90 327.93Q90.90 325.78 92.13 324.18Q93.36 322.58 95.34 322.17L95.34 322.10Q93.65 321.75 92.61 320.38Q91.57 319 91.57 317.11Q91.57 315.26 92.48 313.85Q93.39 312.44 95.02 311.64Q96.66 310.84 98.80 310.84Q100.94 310.84 102.59 311.64Q104.24 312.44 105.15 313.85Q106.06 315.26 106.06 317.11Q106.06 319 105.01 320.38Q103.95 321.75 102.26 322.10L102.26 322.17Q104.24 322.58 105.47 324.18Q106.70 325.78 106.70 327.93Q106.70 329.98 105.71 331.53Q104.72 333.08 102.93 333.96Q101.14 334.84 98.80 334.84M98.80 320.73Q100.30 320.73 101.23 319.82Q102.16 318.90 102.16 317.46Q102.16 315.99 101.23 315.08Q100.30 314.17 98.80 314.17Q97.30 314.17 96.37 315.08Q95.44 315.99 95.44 317.46Q95.44 318.90 96.37 319.82Q97.30 320.73 98.80 320.73M98.80 331.45Q100.56 331.45 101.68 330.42Q102.80 329.40 102.80 327.74Q102.80 326.04 101.68 325Q100.56 323.96 98.80 323.96Q97.04 323.96 95.92 325Q94.80 326.04 94.80 327.74Q94.80 329.40 95.92 330.42Q97.04 331.45 98.80 331.45M114.35 334.52L110.70 334.52L110.70 311.16L115.60 311.16L122.10 330.04Q122 329.02 121.90 327.62Q121.81 326.23 121.73 324.79Q121.65 323.35 121.65 322.23L121.65 311.16L125.30 311.16L125.30 334.52L120.40 334.52L113.97 315.64Q114.03 316.57 114.13 317.88Q114.22 319.19 114.29 320.57Q114.35 321.94 114.35 323.10" fill="white" fill-opacity="0.9"/>
<path d="M161.48 325.24L151.24 325.24L151.24 322.68L161.48 322.68" fill="white" fill-opacity="0.9"/>
<path d="M195.02 334.84Q191.82 334.84 189.96 333.05Q188.11 331.26 188.11 328.12L188.11 317.56Q188.11 314.42 189.96 312.63Q191.82 310.84 195.02 310.84Q198.15 310.84 200.01 312.65Q201.87 314.46 201.87 317.56L198.99 317.56Q198.99 315.58 197.95 314.50Q196.91 313.43 195.02 313.43Q193.13 313.43 192.06 314.50Q190.99 315.58 190.99 317.56L190.99 328.12Q190.99 330.10 192.06 331.18Q193.13 332.25 195.02 332.25Q196.91 332.25 197.95 331.18Q198.99 330.10 198.99 328.12L201.87 328.12Q201.87 331.22 200.01 333.03Q198.15 334.84 195.02 334.84" fill="white" fill-opacity="0.9"/>
<path d="M213.96 334.84Q210.83 334.84 209 333.02Q207.18 331.19 207.18 327.80L207.18 317.88Q207.18 314.49 209 312.66Q210.83 310.84 213.96 310.84Q217.10 310.84 218.92 312.66Q220.75 314.49 220.75 317.85L220.75 327.80Q220.75 331.19 218.92 333.02Q217.10 334.84 213.96 334.84M213.96 332.25Q215.85 332.25 216.86 331.18Q217.87 330.10 217.87 328.12L217.87 317.56Q217.87 315.58 216.86 314.50Q215.85 313.43 213.96 313.43Q212.11 313.43 211.08 314.50Q210.06 315.58 210.06 317.56L210.06 328.12Q210.06 330.10 211.08 331.18Q212.11 332.25 213.96 332.25" fill="white" fill-opacity="0.9"/>
<path d="M228.65 334.52L225.87 334.52L225.87 311.16L230.12 311.16L233.10 321.27L236.20 311.16L240.46 311.16L240.46 334.52L237.67 334.52L237.67 323.48Q237.67 321.91 237.72 319.88Q237.77 317.85 237.87 315.77Q237.96 313.69 238.09 312.02L234.31 324.09L231.82 324.09L228.20 312.31Q228.46 314.68 228.55 317.50Q228.65 320.31 228.65 323.48" fill="white" fill-opacity="0.9"/>
<path d="M247.85 334.52L245.07 334.52L245.07 311.16L249.32 311.16L252.30 321.27L255.40 311.16L259.66 311.16L259.66 334.52L256.87 334.52L256.87 323.48Q256.87 321.91 256.92 319.88Q256.97 317.85 257.07 315.77Q257.16 313.69 257.29 312.02L253.51 324.09L251.02 324.09L247.40 312.31Q247.66 314.68 247.75 317.50Q247.85 320.31 247.85 323.48" fill="white" fill-opacity="0.9"/>
<path d="M271.56 334.84Q268.30 334.84 266.57 333.03Q264.84 331.22 264.84 328.12L264.84 311.16L267.72 311.16L267.72 328.12Q267.72 330.04 268.67 331.16Q269.61 332.28 271.56 332.28Q273.48 332.28 274.44 331.16Q275.40 330.04 275.40 328.12L275.40 311.16L278.28 311.16L278.28 328.12Q278.28 331.26 276.57 333.05Q274.86 334.84 271.56 334.84" fill="white" fill-opacity="0.9"/>
<path d="M286.83 334.52L284.04 334.52L284.04 311.16L287.88 311.16L295.02 331.16Q294.95 330.36 294.87 329.19Q294.79 328.02 294.75 326.73Q294.70 325.43 294.70 324.28L294.70 311.16L297.48 311.16L297.48 334.52L293.64 334.52L286.54 314.52Q286.60 315.29 286.67 316.46Q286.73 317.62 286.78 318.92Q286.83 320.22 286.83 321.40" fill="white" fill-opacity="0.9"/>
<path d="M316.20 334.52L303.72 334.52L303.72 331.90L308.49 331.90L308.49 313.78L303.72 313.78L303.72 311.16L316.20 311.16L316.20 313.78L311.43 313.78L311.43 331.90L316.20 331.90" fill="white" fill-opacity="0.9"/>
<path d="M330.60 334.52L327.72 334.52L327.72 313.78L321.32 313.78L321.32 311.16L337 311.16L337 313.78L330.60 313.78" fill="white" fill-opacity="0.9"/>
<path d="M349.80 334.52L346.92 334.52L346.92 325.78L339.88 311.16L342.95 311.16L347.50 320.76Q347.88 321.56 348.11 322.12Q348.33 322.68 348.39 322.94Q348.46 322.68 348.70 322.12Q348.94 321.56 349.32 320.76L353.87 311.16L356.84 311.16L349.80 325.78" fill="white" fill-opacity="0.9"/>
<path d="M382.83 334.52L380.04 334.52L380.04 311.16L383.88 311.16L391.02 331.16Q390.95 330.36 390.87 329.19Q390.79 328.02 390.75 326.73Q390.70 325.43 390.70 324.28L390.70 311.16L393.48 311.16L393.48 334.52L389.64 334.52L382.54 314.52Q382.60 315.29 382.67 316.46Q382.73 317.62 382.78 318.92Q382.83 320.22 382.83 321.40" fill="white" fill-opacity="0.9"/>
<path d="M405.96 334.84Q402.83 334.84 401 333.02Q399.18 331.19 399.18 327.80L399.18 317.88Q399.18 314.49 401 312.66Q402.83 310.84 405.96 310.84Q409.10 310.84 410.92 312.66Q412.75 314.49 412.75 317.85L412.75 327.80Q412.75 331.19 410.92 333.02Q409.10 334.84 405.96 334.84M405.96 332.25Q407.85 332.25 408.86 331.18Q409.87 330.10 409.87 328.12L409.87 317.56Q409.87 315.58 408.86 314.50Q407.85 313.43 405.96 313.43Q404.11 313.43 403.08 314.50Q402.06 315.58 402.06 317.56L402.06 328.12Q402.06 330.10 403.08 331.18Q404.11 332.25 405.96 332.25" fill="white" fill-opacity="0.9"/>
<path d="M424.55 334.52L418.51 334.52L418.51 311.16L424.55 311.16Q426.83 311.16 428.47 312.02Q430.12 312.89 431.03 314.46Q431.95 316.02 431.95 318.17L431.95 327.48Q431.95 329.62 431.03 331.21Q430.12 332.79 428.47 333.66Q426.83 334.52 424.55 334.52M421.39 313.72L421.39 331.96L424.55 331.96Q426.67 331.96 427.87 330.78Q429.07 329.59 429.07 327.48L429.07 318.17Q429.07 316.09 427.87 314.90Q426.67 313.72 424.55 313.72" fill="white" fill-opacity="0.9"/>
<path d="M451.40 334.52L437.96 334.52L437.96 311.16L451.40 311.16L451.40 313.78L440.81 313.78L440.81 321.02L450.28 321.02L450.28 323.58L440.81 323.58L440.81 331.90L451.40 331.90" fill="white" fill-opacity="0.9"/>
<path d="M463.69 334.84Q460.30 334.84 458.28 333.05Q456.27 331.26 456.27 328.12L459.15 328.12Q459.15 330.07 460.39 331.18Q461.64 332.28 463.69 332.28Q465.67 332.28 466.86 331.13Q468.04 329.98 468.04 328.12Q468.04 326.71 467.29 325.67Q466.54 324.63 465.13 324.25L461.58 323.26Q459.37 322.62 458.11 320.97Q456.84 319.32 456.84 317.08Q456.84 315.22 457.67 313.82Q458.51 312.41 460.01 311.62Q461.51 310.84 463.47 310.84Q465.45 310.84 466.97 311.62Q468.49 312.41 469.35 313.80Q470.22 315.19 470.22 317.02L467.34 317.02Q467.34 315.42 466.25 314.41Q465.16 313.40 463.47 313.40Q461.77 313.40 460.71 314.41Q459.66 315.42 459.66 317.02Q459.66 318.30 460.35 319.21Q461.03 320.12 462.28 320.47L465.93 321.50Q468.27 322.14 469.56 323.91Q470.86 325.69 470.86 328.12Q470.86 331.19 468.91 333.02Q466.95 334.84 463.69 334.84" fill="white" fill-opacity="0.9"/>
</g>
<path d="M82.36 190.92L72.04 196.08L72.04 193.99L79.48 190.34Q79.94 190.13 80.33 189.97Q80.73 189.82 80.92 189.77Q80.70 189.72 80.30 189.55Q79.89 189.38 79.48 189.19L72.04 185.52L72.04 183.36L82.36 188.52" fill="white" fill-opacity="0.7"/>
<path d="M134.80 197.88Q132.45 197.88 131.08 196.51Q129.71 195.14 129.71 192.60L129.71 185.16Q129.71 182.62 131.08 181.25Q132.45 179.88 134.80 179.88Q137.15 179.88 138.52 181.25Q139.89 182.62 139.89 185.14L139.89 192.60Q139.89 195.14 138.52 196.51Q137.15 197.88 134.80 197.88M134.80 195.94Q136.22 195.94 136.97 195.13Q137.73 194.33 137.73 192.84L137.73 184.92Q137.73 183.43 136.97 182.63Q136.22 181.82 134.80 181.82Q133.41 181.82 132.64 182.63Q131.87 183.43 131.87 184.92L131.87 192.84Q131.87 194.33 132.64 195.13Q133.41 195.94 134.80 195.94" fill="white" fill-opacity="0.7"/>
<path d="M146.37 197.64L144.21 197.64L144.21 184.44L146.37 184.44L146.37 186.96L146.39 186.96Q146.56 185.64 147.47 184.92Q148.38 184.20 149.90 184.20Q151.89 184.20 153.06 185.42Q154.24 186.65 154.24 188.76L154.24 197.64L152.08 197.64L152.08 189.14Q152.08 187.63 151.32 186.83Q150.57 186.02 149.27 186.02Q147.93 186.02 147.15 186.86Q146.37 187.70 146.37 189.24" fill="white" fill-opacity="0.7"/>
<path d="M164.37 197.88Q162.88 197.88 161.92 197.15Q160.96 196.42 160.79 195.12L160.77 195.12L160.77 197.64L158.61 197.64L158.61 180.12L160.77 180.12L160.77 183.96L160.72 186.96L160.74 186.96Q160.94 185.69 161.91 184.94Q162.88 184.20 164.37 184.20Q166.36 184.20 167.54 185.52Q168.71 186.84 168.71 189.12L168.71 192.98Q168.71 195.24 167.54 196.56Q166.36 197.88 164.37 197.88M163.65 196.01Q165.02 196.01 165.78 195.29Q166.55 194.57 166.55 192.96L166.55 189.12Q166.55 187.49 165.78 186.78Q165.02 186.07 163.65 186.07Q162.33 186.07 161.55 186.91Q160.77 187.75 160.77 189.24L160.77 192.84Q160.77 194.33 161.55 195.17Q162.33 196.01 163.65 196.01" fill="white" fill-opacity="0.7"/>
<path d="MNaN 197.83Q175.62 197.83 174.22 196.44Q172.82 195.05 172.82 192.55L172.82 189.53Q172.82 187.01 174.21 185.63Q175.60 184.25 NaN 184.25Q180.40 184.25 181.79 185.63Q183.18 187.01 183.18 189.53L183.18 192.55Q183.18 195.05 181.78 196.44Q180.38 197.83 NaN 197.83MNaN 195.91Q179.42 195.91 180.22 195.12Q181.02 194.33 181.02 192.79L181.02 189.29Q181.02 187.75 180.22 186.96Q179.42 186.17 NaN 186.17Q176.61 186.17 175.79 186.96Q174.98 187.75 174.98 189.29L174.98 192.79Q174.98 194.33 175.79 195.12Q176.61 195.91 NaN 195.91" fill="white" fill-opacity="0.7"/>
<path d="M191.25 197.88Q189.21 197.88 188.01 196.74Q186.81 195.60 186.81 193.75Q186.81 192.53 187.36 191.62Q187.91 190.70 188.90 190.19Q189.88 189.67 191.15 189.67L195.23 189.67L195.23 188.64Q195.23 186.07 192.42 186.07Q191.18 186.07 190.41 186.53Q189.64 186.98 189.59 187.80L187.43 187.80Q187.55 186.24 188.88 185.22Q190.22 184.20 192.42 184.20Q194.82 184.20 196.11 185.35Q197.39 186.50 197.39 188.57L197.39 197.64L195.26 197.64L195.26 195.24L195.21 195.24Q195.02 196.46 193.98 197.17Q192.95 197.88 191.25 197.88M191.78 196.06Q193.36 196.06 194.30 195.29Q195.23 194.52 195.23 193.20L195.23 191.35L191.39 191.35Q190.34 191.35 189.68 191.99Q189.02 192.62 189.02 193.68Q189.02 194.78 189.75 195.42Q190.48 196.06 191.78 196.06" fill="white" fill-opacity="0.7"/>
<path d="M204.45 197.64L202.29 197.64L202.29 184.44L204.45 184.44L204.45 186.96L204.50 186.96Q204.66 185.69 205.58 184.94Q206.49 184.20 208.02 184.20Q210.09 184.20 211.20 185.44Q212.32 186.67 212.32 188.95L212.32 190.08L210.16 190.08L210.16 188.95Q210.16 186.07 207.35 186.07Q205.94 186.07 205.19 186.89Q204.45 187.70 204.45 189.24" fill="white" fill-opacity="0.7"/>
<path d="M220.43 197.88Q218.46 197.88 217.28 196.56Q216.09 195.24 216.09 192.98L216.09 189.12Q216.09 186.84 217.26 185.52Q218.44 184.20 220.43 184.20Q221.92 184.20 222.89 184.94Q223.86 185.69 224.06 186.96L224.08 186.96L224.03 183.96L224.03 180.12L226.19 180.12L226.19 197.64L224.03 197.64L224.03 195.12L224.01 195.12Q223.84 196.42 222.88 197.15Q221.92 197.88 220.43 197.88M221.15 196.01Q222.50 196.01 223.26 195.17Q224.03 194.33 224.03 192.84L224.03 189.24Q224.03 187.75 223.26 186.91Q222.50 186.07 221.15 186.07Q219.78 186.07 219.02 186.78Q218.25 187.49 218.25 189.12L218.25 192.96Q218.25 194.57 219.02 195.29Q219.78 196.01 221.15 196.01" fill="white" fill-opacity="0.7"/>
<path d="M241.72 197.64L230.44 197.64L230.44 195.67L235.12 195.67L235.12 186.41L230.92 186.41L230.92 184.44L237.28 184.44L237.28 195.67L241.72 195.67L241.72 197.64M235.96 182.06Q235.17 182.06 234.71 181.66Q234.26 181.25 234.26 180.55Q234.26 179.83 234.71 179.41Q235.17 178.99 235.96 178.99Q236.75 178.99 237.21 179.41Q237.66 179.83 237.66 180.55Q237.66 181.25 237.21 181.66Q236.75 182.06 235.96 182.06" fill="white" fill-opacity="0.7"/>
<path d="M247.17 197.64L245.01 197.64L245.01 184.44L247.17 184.44L247.17 186.96L247.19 186.96Q247.36 185.64 248.27 184.92Q249.18 184.20 250.70 184.20Q252.69 184.20 253.86 185.42Q255.04 186.65 255.04 188.76L255.04 197.64L252.88 197.64L252.88 189.14Q252.88 187.63 252.12 186.83Q251.37 186.02 250.07 186.02Q248.73 186.02 247.95 186.86Q247.17 187.70 247.17 189.24" fill="white" fill-opacity="0.7"/>
<path d="M264.76 201.96L261.06 201.96L261.06 199.99L264.78 199.99Q265.91 199.99 266.56 199.36Q267.21 198.72 267.21 197.64L267.21 196.44L267.26 194.28L267.18 194.28Q266.99 195.46 266.06 196.09Q265.12 196.73 263.70 196.73Q261.66 196.73 260.49 195.43Q259.31 194.14 259.31 191.88L259.31 189.10Q259.31 186.84 260.49 185.52Q261.66 184.20 263.70 184.20Q265.12 184.20 266.06 184.87Q266.99 185.54 267.18 186.72L267.23 186.72L267.23 184.44L269.37 184.44L269.37 197.64Q269.37 199.63 268.13 200.80Q266.90 201.96 264.76 201.96M264.35 194.93Q265.70 194.93 266.46 194.09Q267.23 193.25 267.23 191.76L267.23 189.24Q267.23 187.75 266.46 186.91Q265.70 186.07 264.35 186.07Q262.98 186.07 262.23 186.86Q261.47 187.66 261.47 189L261.47 192Q261.47 193.34 262.23 194.14Q262.98 194.93 264.35 194.93" fill="white" fill-opacity="0.7"/>
<path d="M293.56 201.96L289.86 201.96L289.86 199.99L293.58 199.99Q294.71 199.99 295.36 199.36Q296.01 198.72 296.01 197.64L296.01 196.44L296.06 194.28L295.98 194.28Q295.79 195.46 294.86 196.09Q293.92 196.73 292.50 196.73Q290.46 196.73 289.29 195.43Q288.11 194.14 288.11 191.88L288.11 189.10Q288.11 186.84 289.29 185.52Q290.46 184.20 292.50 184.20Q293.92 184.20 294.86 184.87Q295.79 185.54 295.98 186.72L296.03 186.72L296.03 184.44L298.17 184.44L298.17 197.64Q298.17 199.63 296.93 200.80Q295.70 201.96 293.56 201.96M293.15 194.93Q294.50 194.93 295.26 194.09Q296.03 193.25 296.03 191.76L296.03 189.24Q296.03 187.75 295.26 186.91Q294.50 186.07 293.15 186.07Q291.78 186.07 291.03 186.86Q290.27 187.66 290.27 189L290.27 192Q290.27 193.34 291.03 194.14Q291.78 194.93 293.15 194.93" fill="white" fill-opacity="0.7"/>
<path d="M307.58 197.88Q305.30 197.88 303.93 196.52Q302.56 195.17 302.56 192.84L302.56 184.44L304.72 184.44L304.72 192.84Q304.72 194.28 305.49 195.13Q306.26 195.98 307.58 195.98Q308.92 195.98 309.70 195.13Q310.48 194.28 310.48 192.84L310.48 184.44L312.64 184.44L312.64 192.84Q312.64 195.17 311.25 196.52Q309.86 197.88 307.58 197.88" fill="white" fill-opacity="0.7"/>
<path d="M328.12 197.64L316.84 197.64L316.84 195.67L321.52 195.67L321.52 186.41L317.32 186.41L317.32 184.44L323.68 184.44L323.68 195.67L328.12 195.67L328.12 197.64M322.36 182.06Q321.57 182.06 321.11 181.66Q320.66 181.25 320.66 180.55Q320.66 179.83 321.11 179.41Q321.57 178.99 322.36 178.99Q323.15 178.99 323.61 179.41Q324.06 179.83 324.06 180.55Q324.06 181.25 323.61 181.66Q323.15 182.06 322.36 182.06" fill="white" fill-opacity="0.7"/>
<path d="M335.63 197.88Q333.66 197.88 332.48 196.56Q331.29 195.24 331.29 192.98L331.29 189.12Q331.29 186.84 332.46 185.52Q333.64 184.20 335.63 184.20Q337.12 184.20 338.09 184.94Q339.06 185.69 339.26 186.96L339.28 186.96L339.23 183.96L339.23 180.12L341.39 180.12L341.39 197.64L339.23 197.64L339.23 195.12L339.21 195.12Q339.04 196.42 338.08 197.15Q337.12 197.88 335.63 197.88M336.35 196.01Q337.70 196.01 338.46 195.17Q339.23 194.33 339.23 192.84L339.23 189.24Q339.23 187.75 338.46 186.91Q337.70 186.07 336.35 186.07Q334.98 186.07 334.22 186.78Q333.45 187.49 333.45 189.12L333.45 192.96Q333.45 194.57 334.22 195.29Q334.98 196.01 336.35 196.01" fill="white" fill-opacity="0.7"/>
<path d="M350.80 197.88Q348.47 197.88 347.04 196.48Q345.62 195.07 345.62 192.60L345.62 189.48Q345.62 187.01 347.04 185.60Q348.47 184.20 350.80 184.20Q352.36 184.20 353.52 184.82Q354.69 185.45 355.34 186.58Q355.98 187.70 355.98 189.24L355.98 191.59L347.73 191.59L347.73 192.84Q347.73 194.30 348.57 195.16Q349.41 196.01 350.80 196.01Q352 196.01 352.78 195.54Q353.56 195.07 353.73 194.28L355.89 194.28Q355.67 195.94 354.28 196.91Q352.89 197.88 350.80 197.88M347.73 189.24L347.73 189.91L353.87 189.91L353.87 189.24Q353.87 187.68 353.07 186.83Q352.26 185.98 350.80 185.98Q349.34 185.98 348.53 186.83Q347.73 187.68 347.73 189.24" fill="white" fill-opacity="0.7"/>
<path d="M97.14 136.06L84.37 136.06L66.42 65.98L76.21 65.98L87.82 113.21Q88.98 117.72 89.79 121.90Q90.61 126.08 90.99 128.28Q91.28 126.08 92.19 121.85Q93.10 117.63 94.16 113.12L105.39 65.98L115.18 65.98L97.14 136.06M153.20 136.06L143.70 136.06L143.70 74.62L124.69 74.62L124.69 65.98L172.11 65.98L172.11 74.62L153.20 74.62L153.20 136.06M227.31 136.06L186.51 136.06L186.51 65.98L227.31 65.98L227.31 74.52L195.92 74.52L195.92 95.36L223.95 95.36L223.95 103.61L195.92 103.61L195.92 127.52L227.31 127.52L227.31 136.06M248.82 136.06L238.35 136.06L258.32 100.44L239.41 65.98L250.26 65.98L260.62 85.95Q261.49 87.68 262.40 89.50Q263.31 91.32 263.79 92.28Q264.27 91.32 265.14 89.50Q266 87.68 266.86 85.95L277.33 65.98L287.79 65.98L268.88 99.96L288.85 136.06L278.10 136.06L266.58 114.56Q265.71 112.83 264.85 110.96Q263.98 109.08 263.50 107.93Q263.02 109.08 262.16 110.96Q261.30 112.83 260.34 114.46L248.82 136.06M379.18 137.02Q369.49 137.02 363.78 131.60Q358.06 126.17 358.06 116.67L358.06 85.28Q358.06 75.87 363.78 70.44Q369.49 65.02 379.18 65.02Q388.78 65.02 394.50 70.49Q400.21 75.96 400.21 85.28L390.70 85.28Q390.70 79.61 387.63 76.54Q384.56 73.47 379.18 73.47Q373.71 73.47 370.64 76.54Q367.57 79.61 367.57 85.28L367.57 116.67Q367.57 122.43 370.64 125.50Q373.71 128.57 379.18 128.57Q384.56 128.57 387.63 125.50Q390.70 122.43 390.70 116.67L390.70 107.55L377.07 107.55L377.07 99.10L400.21 99.10L400.21 116.67Q400.21 126.08 394.50 131.55Q388.78 137.02 379.18 137.02M455.50 136.06L417.30 136.06L417.30 127.42L431.60 127.42L431.60 74.62L417.30 74.62L417.30 65.98L455.50 65.98L455.50 74.62L441.20 74.62L441.20 127.42L455.50 127.42L455.50 136.06M483.44 136.06L473.94 136.06L473.94 65.98L515.79 65.98L515.79 74.72L483.25 74.72L483.25 96.80L513.30 96.80L513.30 105.44L483.44 105.44L483.44 136.06M556.40 136.06L546.90 136.06L546.90 74.62L527.89 74.62L527.89 65.98L575.31 65.98L575.31 74.62L556.40 74.62L556.40 136.06M609.97 137.02Q600.27 137.02 594.56 131.60Q588.85 126.17 588.85 116.67L588.85 85.28Q588.85 75.87 594.56 70.44Q600.27 65.02 609.97 65.02Q619.57 65.02 625.28 70.49Q630.99 75.96 630.99 85.28L621.49 85.28Q621.49 79.61 618.42 76.54Q615.34 73.47 609.97 73.47Q604.50 73.47 601.42 76.54Q598.35 79.61 598.35 85.28L598.35 116.67Q598.35 122.43 601.42 125.50Q604.50 128.57 609.97 128.57Q615.34 128.57 618.42 125.50Q621.49 122.43 621.49 116.67L630.99 116.67Q630.99 126.08 625.28 131.55Q619.57 137.02 609.97 137.02M652.11 136.06L642.42 136.06L660.56 65.98L673.14 65.98L691.18 136.06L681.49 136.06L677.07 117.82L656.53 117.82L652.11 136.06M663.54 88.92L658.45 109.95L675.15 109.95L670.16 89.02Q668.72 83.26 667.86 79.23Q666.99 75.20 666.80 73.76Q666.61 75.20 665.74 79.23Q664.88 83.26 663.54 88.92M713.55 136.06L704.14 136.06L704.14 65.98L725.84 65.98Q732.27 65.98 737.07 68.52Q741.87 71.07 744.56 75.63Q747.25 80.19 747.25 86.33Q747.25 93.44 743.65 98.52Q740.05 103.61 734.10 105.72L748.21 136.06L737.74 136.06L724.40 106.78L713.55 106.78L713.55 136.06M713.55 74.43L713.55 98.33L725.84 98.33Q731.22 98.33 734.34 95.07Q737.46 91.80 737.46 86.43Q737.46 80.96 734.29 77.69Q731.12 74.43 725.84 74.43L713.55 74.43M780.46 136.06L761.65 136.06L761.65 65.98L780.46 65.98Q787.28 65.98 792.32 68.62Q797.36 71.26 800.14 76.01Q802.93 80.76 802.93 87.20L802.93 114.75Q802.93 121.18 800.14 125.98Q797.36 130.78 792.32 133.42Q787.28 136.06 780.46 136.06M771.15 74.43L771.15 127.61L780.46 127.61Q786.51 127.61 789.97 124.16Q793.42 120.70 793.42 114.75L793.42 87.20Q793.42 81.24 789.97 77.84Q786.51 74.43 780.46 74.43L771.15 74.43M882.51 136.06L872.82 136.06L890.96 65.98L903.54 65.98L921.58 136.06L911.89 136.06L907.47 117.82L886.93 117.82L882.51 136.06M893.94 88.92L888.85 109.95L905.55 109.95L900.56 89.02Q899.12 83.26 898.26 79.23Q897.39 75.20 897.20 73.76Q897.01 75.20 896.14 79.23Q895.28 83.26 893.94 88.92M943.95 136.06L934.45 136.06L934.45 65.98L957.20 65.98Q963.92 65.98 968.82 68.57Q973.71 71.16 976.40 75.82Q979.09 80.48 979.09 86.91Q979.09 93.24 976.40 97.90Q973.71 102.56 968.77 105.15Q963.82 107.74 957.20 107.74L943.95 107.74L943.95 136.06M943.95 74.43L943.95 99.29L957.20 99.29Q962.77 99.29 966.03 95.88Q969.30 92.48 969.30 86.91Q969.30 81.24 966.03 77.84Q962.77 74.43 957.20 74.43L943.95 74.43M1031.50 136.06L993.30 136.06L993.30 127.42L1007.60 127.42L1007.60 74.62L993.30 74.62L993.30 65.98L1031.50 65.98L1031.50 74.62L1017.20 74.62L1017.20 127.42L1031.50 127.42" fill="url(#paint2_linear_0_1)"/>
<g id="Group 1">
<rect id="Rectangle 1" x="26" y="168" width="12" height="184" rx="5" fill="url(#paint3_linear_0_1)" fill-opacity="0.9"/>
</g>
<g id="Group 1_2">
<rect id="Rectangle 2" x="26" y="38" width="12" height="119" rx="5" fill="url(#paint4_linear_0_1)" fill-opacity="0.9"/>
</g>
<ellipse id="Ellipse 1" cx="148.5" cy="573" rx="215.5" ry="214" fill="url(#paint5_linear_0_1)" fill-opacity="0.4"/>
<rect id="Rectangle 3" x="1229" y="48" width="300" height="300" rx="25" fill="#FFFBFB" fill-opacity="0.9"/>
<g id="placeholder-logo"><g transform="translate(1229,48) translate(0.0,60.0) scale(1.2000)"><g fill="#666666">
  <path d="m88.05,27.65c-3.15,4 -3.2,51.2 -0.05,54.35c2.75,2.75 71.7,3.15 74.45,0.45c2.85,-2.9 2.3,-53.85 -0.65,-55.9c-1.95,-1.35 -7.15,-1.55 -36.95,-1.55l-34.7,0l-2.1,2.65zm69.45,3.35c0.65,0 1,8.6 1,23.75l0,23.75l-33,0l-33,0l-0.25,-23c-0.15,-12.6 -0.1,-23.45 0.15,-24.1c0.35,-0.85 8.9,-1.05 32.25,-0.75c17.55,0.2 32.3,0.35 32.85,0.35z"/>
  <path d="m99.15,37.3c-6.85,7.35 4.25,17.35 11.4,10.25c1.35,-1.35 2.45,-3.65 2.45,-5.05c0,-6.45 -9.35,-9.95 -13.85,-5.2z"/>
  <path d="m135,42.5c-0.7,0.85 -5.25,5.15 -10.1,9.6l-8.85,8.1l-3.2,-3.2l-3.15,-3.15l-6.35,6.3c-5.55,5.5 -6.35,6.75 -6.35,10.05l0,3.8l28.5,0l28.5,0l0,-8.6l0,-8.55l-8.15,-7.7c-9.35,-8.85 -9.15,-8.7 -10.85,-6.65zm7.25,15.2c0.95,0.9 1.75,2.9 1.75,4.45c6.35,-5.05 4.75,-7.15 4.9,-11.55c0.95,0 0,0 0,0l-6.65,7.1z"/>
  <path d="m53.65,110.75c0.1,4.8 0.45,8.65 0.75,8.5c0.35,-0.15 1.3,-0.25 2.1,-0.25c1.1,0 1.5,-1.2 1.5,-4.75l0,-4.75l3.25,5c4.9,7.5 6.2,6.75 6.55,-3.75c0.25,-8.15 0.15,-8.75 -1.7,-8.75c-1.65,0 -2.05,0.8 -2.3,4.75l-0.3,4.75l-2.8,-4.75c-4.85,-8.25 -7.25,-6.9 -7.05,4z"/>
  <path d="m91,108.9c0,9.65 0.3,10.1 6.1,10.1c5.8,0 7.15,-2.65 1.65,-3.2l-3.25,-0.3l-0.3,-6.75c-0.25,-5.95 -0.55,-6.75 -2.25,-6.75c-1.75,0 -1.95,0.7 -1.95,6.9z"/>
  <path d="m151,102.45c0,0.25 1,2.15 2.25,4.2c1.2,2.1 2.45,5.8 2.75,8.25c0.65,5.9 4,6.95 4,1.25c0.05,-2.1 1.25,-5.85 2.95,-8.9l2.9,-5.25l-2.5,0c-1.8,0 -2.8,0.85 -3.75,3.1l-1.3,3.05l-1.25,-3.05c-1.1,-2.6 -6.05,-4.8 -6.05,-2.65z"/>
  <path d="m191,107.45c0,9.05 3.4,8.85 4.25,-0.2c0.45,-5 0.35,-5.25 -1.9,-5.25c-2.2,0 -2.35,0.4 -2.35,5.45z"/>
  <path d="m180.8,104.75c-1.3,5.35 0.65,13.6 3.45,14.35c2.3,0.6 2.75,0.4 2.75,-1.2c0,-1.05 -0.45,-1.9 -1,-1.9c-0.55,0 -1,-1.6 -1,-3.5c0,-1.95 0.45,-3.5 1,-3.5c0.55,0 1,-0.7 1,-1.5c0,-0.85 -0.45,-1.5 -1,-1.5c-0.55,0 -1,-0.7 -1,-1.5c0,-2.1 -3.65,-1.9 -4.2,0.25z"/>
  <path d="m71.55,106.55c-2.2,2.25 -2.05,9.7 0.3,11.8c4.5,4.1 10.15,0.75 10.15,-6.1c0,-4.85 -2,-7.25 -6,-7.25c-1.55,0 -3.55,0.7 -4.45,1.55zm6.25,5.8c0.25,3.05 0,3.65 -1.6,3.65c-2.3,0 -3.25,-2.65 -2.05,-5.85c1.25,-3.35 3.3,-2.1 3.65,2.2z"/>
  <path d="m105.75,106.1c-2.5,1.45 -2.45,9.95 0.1,12.25c4.3,3.9 10.15,0.35 10.15,-6.2c0,-6 -5.15,-9.05 -10.25,-6.05zm6.05,6.25c0.25,3.05 0,3.65 -1.6,3.65c-2.3,0 -3.25,-2.65 -2.05,-5.85c1.25,-3.35 3.3,-2.1 3.65,2.2z"/>
  <path d="m119.2,106.2c-3.8,3.8 -0.4,12.55 4.4,11.35c1.9,-0.45 2.45,-0.3 2.15,0.65c-0.25,0.7 -1.55,1.2 -2.85,1.1c-4.05,-0.3 -5.35,0.45 -3.85,2.25c0.85,1.05 2.6,1.45 5.35,1.25l4.1,-0.3l0.3,-8.75l0.3,-8.75l-4.35,0c-2.4,0 -4.9,0.55 -5.55,1.2zm6.6,4.45c0.4,2.85 -2.15,4.85 -3.75,2.95c-0.9,-1.1 -0.9,-2 -0.05,-3.6c1.35,-2.5 3.4,-2.15 3.8,0.65z"/>
  <path d="m133.55,106.55c-2.2,2.25 -2.05,9.7 0.3,11.8c4.5,4.1 10.15,0.75 10.15,-6.1c0,-4.85 -2,-7.25 -6,-7.25c-1.55,0 -3.55,0.7 -4.45,1.55zm6.25,5.8c0.25,3.05 0,3.65 -1.6,3.65c-2.3,0 -3.25,-2.65 -2.05,-5.85c1.25,-3.35 3.3,-2.1 3.65,2.2z"/>
  <path d="m167.65,106.85c-3.9,4.3 -0.75,13.15 4.7,13.15c2.4,0 5.65,-2.75 5.65,-4.85c0,-1.4 -2.65,-1.55 -3.5,-0.15c-0.95,1.55 -4.5,1.15 -4.5,-0.5c0,-1.1 1.1,-1.5 4,-1.5c3.15,0 4,-0.35 4,-1.8c0,-5.3 -6.85,-8.25 -10.35,-4.35z"/>
  <path d="m191,117.5c0,2.15 0.4,2.6 2.25,2.3c1.5,-0.2 2.25,-1 2.25,-2.3c0,-1.3 -0.75,-2.1 -2.25,-2.3c-1.85,-0.3 -2.25,0.15 -2.25,2.3z"/>
 </g></g></g>
</g>
<defs>
<linearGradient id="paint0_linear_0_1" x1="0" y1="198" x2="1584" y2="198" gradientUnits="userSpaceOnUse">
<stop stop-color="#3D052C"/>
<stop offset="1"/>
</linearGradient>
<linearGradient id="paint1_linear_0_1" x1="323" y1="-224" x2="323" y2="352" gradientUnits="userSpaceOnUse">
<stop stop-color="#28F6F2" stop-opacity="0.4"/>
<stop offset="1" stop-color="#17908E" stop-opacity="0.7"/>
</linearGradient>
<linearGradient id="paint2_linear_0_1" x1="148.5" y1="38" x2="148.5" y2="140" gradientUnits="userSpaceOnUse">
<stop stop-color="white"/>
<stop offset="1" stop-color="#999999"/>
</linearGradient>
<linearGradient id="paint3_linear_0_1" x1="38" y1="260" x2="26" y2="260" gradientUnits="userSpaceOnUse">
<stop stop-color="#D9D9D9"/>
<stop offset="1" stop-color="#737373"/>
</linearGradient>
<linearGradient id="paint4_linear_0_1" x1="38" y1="97.5" x2="26" y2="97.5" gradientUnits="userSpaceOnUse">
<stop stop-color="#D9D9D9"/>
<stop offset="1" stop-color="#737373"/>
</linearGradient>
<linearGradient id="paint5_linear_0_1" x1="27.5" y1="434.5" x2="148.5" y2="787" gradientUnits="userSpaceOnUse">
<stop stop-color="#2E21BC"/>
<stop offset="1" stop-color="#150F56"/>
</linearGradient>
<clipPath id="clip0_0_1">
<rect width="1584" height="396" fill="white"/>
</clipPath>
</defs>
</svg>
